<?xml version="1.0" standalone="no"?>
<!DOCTYPE svg PUBLIC "-//W3C//DTD SVG 20010904//EN"
 "http://www.w3.org/TR/2001/REC-SVG-20010904/DTD/svg10.dtd">
<svg version="1.0" xmlns="http://www.w3.org/2000/svg"
 width="567.000000pt" height="206.000000pt" viewBox="0 0 567.000000 206.000000"
 preserveAspectRatio="xMidYMid meet">
<metadata>
Created by potrace 1.16, written by Peter Selinger 2001-2019
</metadata>
<g transform="translate(0.000000,206.000000) scale(0.100000,-0.100000)"
fill="#000000" stroke="none">
<path d="M1140 1558 l0 -113 -143 -82 c-79 -46 -147 -83 -151 -83 -4 0 -49 24
-100 54 -87 50 -94 52 -104 35 -7 -10 -12 -21 -12 -23 0 -2 43 -28 95 -57 l95
-54 0 -170 0 -170 -95 -54 c-52 -29 -95 -55 -95 -57 0 -2 5 -13 12 -23 10 -17
17 -15 104 35 51 30 96 54 100 54 4 0 72 -37 151 -82 l143 -83 0 -112 0 -113
25 0 25 0 0 113 0 114 145 83 146 83 42 -23 c23 -13 67 -38 97 -56 53 -31 55
-32 68 -12 8 10 12 21 11 23 -2 1 -48 29 -101 60 l-98 57 0 163 0 163 98 57
c53 31 99 59 101 60 1 2 -3 13 -11 23 -13 20 -15 19 -68 -12 -30 -18 -74 -43
-97 -56 l-42 -23 -146 83 -145 83 0 114 0 113 -25 0 -25 0 0 -112z m145 -226
c66 -38 132 -76 148 -86 l27 -18 0 -163 c0 -162 0 -163 -25 -179 -32 -21 -201
-118 -242 -139 l-32 -17 -143 83 -143 82 0 170 0 170 140 82 c77 45 142 82
145 82 3 1 59 -30 125 -67z"/>
</g>
</svg>
